<svg xmlns="http://www.w3.org/2000/svg" viewBox="0 0 128 128">
  <defs>
    <linearGradient id="grad" x1="0%" y1="0%" x2="100%" y2="100%">
      <stop offset="0%" style="stop-color:#EAB308;stop-opacity:1" />
      <stop offset="100%" style="stop-color:#CA8A04;stop-opacity:1" />
    </linearGradient>
  </defs>
  <rect width="128" height="128" rx="24" fill="#0f172a"/>
  <g transform="translate(64, 64)">
    <!-- Prayer hands icon -->
    <path d="M-20,-30 C-30,-35 -35,-25 -35,-15 L-35,15 C-35,25 -25,30 -15,30 L-5,30 L-5,-25 C-5,-35 -15,-35 -20,-30" fill="url(#grad)" opacity="0.9"/>
    <path d="M20,-30 C30,-35 35,-25 35,-15 L35,15 C35,25 25,30 15,30 L5,30 L5,-25 C5,-35 15,-35 20,-30" fill="url(#grad)" opacity="0.9"/>
    <!-- Center star/light -->
    <circle cx="0" cy="0" r="8" fill="#EAB308"/>
  </g>
</svg>
